# xmcd
#
# Track frame offsets: 
#        183
#        12433
#        28785
#        41505
#        55220
#        70280
#        81090
#        93378
#        106333
#        128790
#
# Disc length: 1938 seconds
#
# Revision: 2
# Processed by: cddbd v1.5.2PL0 Copyright (c) Steve Scherf et al.
# Submitted via: ExactAudioCopy v0.90b4
#
DISCID=7f07900a
DTITLE=Marshall Tucker Band - Still Holdin' On
DYEAR=1988
DGENRE=Southern Rock
TTITLE0=Dancin' Shoes
TTITLE1=Keeping The Love Alive
TTITLE2=Once You Get The Feel Of It
TTITLE3=Still Holdin' On
TTITLE4=Dangerous Road
TTITLE5=Hangin' OUt In Smokey Places
TTITLE6=I'm Glad It's Gone
TTITLE7=Why Did You Lie
TTITLE8=The Same Old Moon
TTITLE9=Why Didn't I Think Of That
EXTD=
EXTT0=
EXTT1=
EXTT2=
EXTT3=
EXTT4=
EXTT5=
EXTT6=
EXTT7=
EXTT8=
EXTT9=
PLAYORDER=
